/* XPM */
static char * gun_sprite_xpm[] = {
"177 64 16 1",
" 	c #A349A4",
".	c #383838",
"+	c #181818",
"@	c #585858",
"#	c #F8F8F8",
"$	c #787878",
"%	c #E8D8C8",
"&	c #B8B8B8",
"*	c #D80000",
"=	c #F05808",
"-	c #E87818",
";	c #F0B020",
">	c #E8B898",
",	c #E8A070",
"'	c #C07048",
")	c #805030",
"                                                                                                                                                         ....                    ",
"                                                                                                                                                       +.@#$@.+                  ",
"                                                                                                                                                      ++@$#$@.++                 ",
"                                                                                                                                                      ++@$%$@.++                 ",
"                                                                                                                                                      ++@$&$@.++                 ",
"                                                                                                                                                      ++@$&$@.++                 ",
"                                                                                                                                                      ++@$&$@.++                 ",
"                                                                                                        ****                                          ++@$&$@.++                 ",
"                                                                                                       *=*=**                                         ++@$&$@.++                 ",
"                                                                                                       =*=*=**                                        ++@$&$@.++                 ",
"                                                                                                      **---==*                                        ++@$&$@.++                 ",
"                                                                                                     *=-;-;-==*                                       ++&####$++                 ",
"                                                                                                     *=;-;-;-==                                     .$$+&#&&#$+$$.               ",
"                                                                                                    *=-;%>%,;-=*                                   .$&@+&#&&#$+@&$.              ",
"                                                                                                    ==,%>#%#>,==                                  .@$&@+&#$$#$+@&$.+             ",
"                                                                                                   *==>%####%>==*                                 .@$&@+&#&&#$+@&$.+             ",
"                                                       .$$.                                        ==-%##&&%#%===                                 .@$&@+&#$$#$+@&$.+             ",
"                                                      @$#$@.                                      *==;#$$#$@$%;-=*                                .@$&@+&%$$%$+@&$.+             ",
"                                                     +@$#$@.+                                     *=-%+@$#$@.+%--*                                .@$&@+&$@@$$+@&$.+             ",
"                                                     +@$%$@.+                                     *-;%+@$#$@.+%;-*                                .@$&@+&@..@$+@&$.+>            ",
"                                                     +@$&$@.+                                     *-;%+@$%$@.+%;-                                 .@$&@.$&&&&$.@&$.+',>          ",
"                                                     +@$&$@.+                                      *=;+@$&$@.+;**                                 .@$&@.@$$$$@.@$@.+'',          ",
"                                                     +@$&$@.+                                       *=+@$&$@.+*                                   ..@$@.@@@@@@.@@..+)',>         ",
"                                                     +@$&$@.+                                         +@$&$@.+                                    ...@@.++++++.@..++)',>         ",
"                                                   @&+$&&&&$+&@                                     @;+$;##;$+;@                                  .+..@..........+++)''>         ",
"                                                  @@$+$#$$#$+$@@                                   @@$+$#$$#$+$@@                               )).++...$@@$&$..++++))',>        ",
"                                                 ..@$+&%$$%$+$@@.                                 ..@$+&%$$%$+$@@.                             ))).++...@@$&&$.+.+++))',>        ",
"                                                 ..@$+&$@@$$+$@@.                                 ..@$+&$@@$$+$@@.                            )))).@.++.++++++.++.@+)'',>        ",
"             .$$.                                ..@$+&@..@$+$@..                                 ..@$+&@..@$+$@..                            )))')$@.+..++++..+.@+))))'>>       ",
"            @$#$@.                               ..@$.$&&&&$.$@..                                 ..@$.$&&&&$.$@..                            ))''')$@+.........@+)))))',%       ",
"           +@$#$@.+                              ..@$.@$$$$@.$@..                                 ..@$.@$$$$@.$@..                            ))',#')$+@@$$$$@@.+)'')))',%%      ",
"           +@$%$@.+                              ..@$.@@@@@@.$@..                                 ..@$.@@@@@@.$@..                           ))),>%>')++++++++++)'',))'',%%      ",
"           +@$&$@.+                              ...@.++++++.@.++                                 ...@.++++++.@.++                           )))),>>>')))',,'))',>>))''',%>      ",
"           +@$&$@.+                              .++@.........+++)''                              .++@.........+++;'                         )'))',,,>,'))'>>'''>,))','',%,      ",
"           +@$&$@.+                              .++..$@@$&$..+++)',>                             .++..$@@$&$..+++;;,                       )','))',,,%>>>')),'''))>,''',%       ",
"         @&+$&&&&$+&@                            .+++.@@$&&$.++++)''>                             .+++.@@$&&$.++++,;,                       )'>,'))',,%%%>,>'))))>>,'')'>%       ",
"        @@$+$#$$#$+$@@                         )).+++.++++++.++++))',>                           ).+++.++++++.++++,,,,                      )'>,,'))',%,,''',>>>>,'')))'%>       ",
"       ..@$+&%$$%$+$@@.                       )))..++.++..++.++.+))',>                          ),..++.++..++.++.+,'',                      ''>,,''))',,')))'',,''))))',%,       ",
"       ..@$+&$@@$$+$@@.                       ))).@.+.++++++.+.@+))',>                         ),,.@.+.++++++.+.@+')''>                     ',,,,'''))',')))))''))))))'>%        ",
"       ..@$+&@..@$+$@..                      )))))$@+..++++..+@+))))'>>                       )',,)$@+..++++..+@+))))',                    )',,,''')))',,')))))))))))',>%        ",
"       ..@$.$&&&&$.$@..                      ))))))$+.........+)))))',%                       )'')))$+.........+)))))',%                   )'''''')))))',,'))))))))))',>%        ",
"       ..@$.@$$$$@.$@..                     ))))''))+@@$$$$@@.)'')))',%%                      )')''))+@@$$$$@@.)'')))',%                   ))''''))))'')'','))))))))'',>%        ",
"       ..@$.@@@@@@.$@..                     )))',,')++++++++++'',)))',%%                     )))'>>')++++++++++''))')',%%                  )))))))))')..++',')))))))'',>%        ",
"       ...@.++++++.@.++                     )))',>>>)))',,'))'>>))'',,%>                     )))',>%>'))',,'))'>)),)',,%>                  ))))))))')..+++.),'))))$$$$$$$$       ",
"       .++@.........+++                    )',))',,,,)))'>>''',))''',>%,                     )).)',>%%,'''>>')')),')',>%,                  #######&&).++++.@'')@$$&&&%#%&$       ",
"       .++..$@@$&$..+++)'                  )','))',,,>>>))),''))')''>%%                     )'').)',,>%%,'')'))),'))',>%)                 ##&&&&&&&&$$@++.@ )@$$&&$$$$%##&@      ",
"       .+++.@@$&&$.++++)',                 )'>,'))',>%>>,'')))''))',>%%                     )'>')+)',>%>>,''))','))',,%%                  ###%&&&&&&$@...@  @$&&$$@@@@$$$&$      ",
"       .+++.++++++.++++)''                 )'>,,'))'>,,''))'''))))',>%>                     )'>>')+)'>,,')))'''))))',>%>                  ######&&&$$@@++@  $$&%$$$&&&&$$$&@     ",
"       .+++.++++++.++++))',               )',>,,'')),,'')))))))))',,>%,                     ),>>,))+),,'))))))))))',,>%,                 ####&&&&$$@@@@++@  $&%%&&&$@$$&##&$     ",
"     ))..++.++..++.++.+))',               )',,,,''')','))))))))))',,>%)                    )',,,,)).+','))))))))))',,>%)                 ###&&&$$@@@@@+++@  $&%&$@..@@@$$&&$@    ",
"    ))).@.+.++++++.+.@+))',>              )',,,'''))),,')))))))))',,>%)                    )',,,''))++,,')))))))))',,>%)                 ####&$$@.....++.@  $&$@..@@$$&&&@@$$    ",
"    ))))$@+..++++..+@+))))'>              )''''''))).),,'))))))))',,>%)                    )''''''))++),,'))))))))',,>%)                ######&&$$$.++++..  $$@.@@$$@@@$&&$@@    ",
"   ))))))$+.........+)))))',%             )''''')))...)'''))))))$$$$$$$@                   )''''')))+++)''')))))@$$$$$$$@               ##%%%%###&&$.+++@   $@..@$@@@@@@@$&&$@   ",
"   )))''))+@@$$$$@@.)'')))',%%           @$&&&$$)))++++.)''))@$&&&&&&&%#$                 @$&&&$$)))++++.)')))@$&#######&$              %%&&&&&&%##&$.++@   $..@$@@@....@@$&&$   ",
"   ))',,')++++++++++'',)))',%%          @&%%%%%%%&$@.+.@ ))@$&&&&&$$&&&##$               @&%%###%%&&@.++. ))@$&###&$$&&##&$             &&@$$$$&&&%#&@++@   $.@&$@..@$$$$@@$&$   ",
"  )))',>>>)))',,'))'>>))'',,%>          &%##%%%&&$$@@@@  )@$&&&@.+.$$$&&#%               &%##%%%&&$$@@@@  )@$&#&@.+.$$$&##&            %&@@@@@@@$&&&&@+..   $$&&@.@@$&&&&$$@@$@  ",
"  ))))',,,,)))'>>''',))''',>%,         &%####%&$$$@..++.  $$%&$.+@@@&&&&#%$             @%####%&$$@@..++.  $&%&$.+.@@&&###%$           &##%$@.+..@$$$.+@    $#@@.@$$&&###&&%&$$  ",
"  )')))',,,>>>))),''))')''>%%         &&&&%###%&&@+++++@  $#%@.+++@@$$&&%#%$           @&&&%###%&&@+++++@  $#&@.+++.@$$&&%#&$          &#%&#&$.++..@.++@    $@.+.@$&$$$&&@@$&&$  ",
" )'>')))',>%>>,'')))''))',>%%         &%########%&$.+++@  $#@.++@$$$$$@@$&#&           &%########%&$.+++@  $&@.++.$$$$$@@$&#&          ####&#&$$.++++++@    $.+.@$$$@@@$&&$$$&&$ ",
" )'>,')))'>,,''))'''))))',>%>        &###%&&&&&%%&$@.+.@  $$.+@$$@@@$&&$@@&%$         @####&&&&&%%&$@.+.@  $@.+.$$@@@$&&$@@&%$        &###&&&##&&$.++++.    $+.@$$@..++@@$&&$$&$ ",
" ),>,,'))),,'')))))))))',,>%,        &##%&&$$$$@@@@.++@   $@+@$@@.++.@$&&$@&%         &##%&##&$$@@@@.++@   $.+.$@@.++.@$&&$@&&        #%&&$&&&##&$@.+++.    $+.$$@.@$@.+.@@$&&$%@",
")',,,,''))','))))))))))',,>%)       &#%&&$$&#$@....++.@   $.@$@@@$@.++.@$&&$%&       @#%&&.$&#&@..++++.@   $..$@@@$@.++.@$&&$%&       #%&$+@&&&&$$@.+++.    $+.@$$$&&$@@.+.@$&##$",
")',,,'''))),,')))))))))',,>%)       ##%&$@@$&&$@@.+++@    $.$$$&&$$@@.++.$&##&$      ##%&$+.$&#&@@.+++@    $.$$$&&$$@@.++.$&##&$      #%&$@+@$$$$@.++++.    $++.@$&&&&$$@.++@$&#&",
")''''''))))),,'))))))))',,>%)      &##%&$@@@$$&$..++.@    $$$&%%%&$$$@.++.$&##&     @##%&$++.$$&$..++.@    $$$&%%%&$$$@.++.$&##&     %##%&$@+++...+++++.    @+++.@$%%&&&$$@.+@$&#"};
