/* XPM */
static char * knife_three_xpm[] = {
"39 38 12 1",
" 	c #A349A4",
".	c #787878",
"+	c #B8B8B8",
"@	c #F8F8F8",
"#	c #E8D8C8",
"$	c #585858",
"%	c #383838",
"&	c #805030",
"*	c #C07048",
"=	c #E8B898",
"-	c #E8A070",
";	c #181818",
"                                       ",
"                                       ",
"                                       ",
"                                       ",
"                                       ",
"                                       ",
"                                       ",
"                                       ",
"      .                                ",
"     ++.                               ",
"    +@#$.                              ",
"    @@#.$.                             ",
"    @##+.$.                            ",
"    @+##+.%$                           ",
"    @++#++.%$                          ",
" .@@@@+#+++.%$                         ",
".$$$$$$..++++$$                        ",
".$%%%%%%$$$$&****&                     ",
".$%%%%=####@@@@==--                    ",
".$%%%$*--==####@@@=-                   ",
" ...$*&&*-==######@#                   ",
"   $*&;;&*-===#####@#                  ",
"   %&;;;&*--======##@                  ",
"    %;;;%&*---=#====#@                 ",
"    %;;%%%&**--=#====#@                ",
"    %%%%;%%%&**--=====#@               ",
"      %;;%%%%&&*--=====#@              ",
"      $;$;;$;%&&*--=====#@             ",
"       $%;$&;%&&&***+@@@@@@            ",
"        $.&**&&&&&.++++++++@           ",
"               &...+++++++++@          ",
"               .$$.++++++++++@         ",
"              .%$$..+++++++++@         ",
"              .%%$..++++++++++@        ",
"              .;%$$..+++..$$$$$+       ",
"              .;%$$.....$$......+      ",
"              .;;%$$.$$$.++..++..+     ",
"              .;;;%%$.@@+$.++.$$$+     "};
