/* XPM */
static char * knife_two_xpm[] = {
"36 38 12 1",
" 	c #A349A4",
".	c #E8D8C8",
"+	c #787878",
"@	c #F8F8F8",
"#	c #B8B8B8",
"$	c #585858",
"%	c #383838",
"&	c #181818",
"*	c #C07048",
"=	c #E8A070",
"-	c #E8B898",
";	c #805030",
"                                    ",
"                                    ",
"                                    ",
"                                    ",
"                                    ",
"                                    ",
"                                    ",
"                                    ",
"                                    ",
"                                    ",
".                                   ",
".+                                  ",
"@+#                                 ",
"@#+#                                ",
"@##+#                               ",
"@###+#                              ",
"@####+#                             ",
"@####++#                            ",
"@####+++#                           ",
"@#####+++#                          ",
"@####@#+++#                         ",
"@#####@#+++#                        ",
" ####+$@+$++#                       ",
" ###+$%&@%$$+#                      ",
"  #+$$%%&#%%$+#                     ",
"  #+$%%&%&+%&$+#                    ",
"   #+%&&&&&&&&$+#                   ",
"    #$&&&&&&&&+@@#+                 ",
"     #&&&&&&+@@$%%$                 ",
"      #&&&+##$%%%%%****             ",
"       #+##$%%%%*=.@@@.**           ",
"       ++%%%&&=.@@.---.@.*          ",
"      +$%&&&*.@.--==.-.=-@*         ",
"       +$%*.@.--===*=..==-@*        ",
"        %;=.--==**;;==**==-@*       ",
"         ;*.--=**;&&***-==-.-       ",
"        ;*;*.-=*;&&&;*=--==-.*      ",
"        .-*;*-==*;&&&;*=--=-.-*     "};
