/* XPM */
static char * knife_one_xpm[] = {
"25 38 8 1",
" 	c #A349A4",
".	c #E8D8C8",
"+	c #F8F8F8",
"@	c #585858",
"#	c #787878",
"$	c #B8B8B8",
"%	c #383838",
"&	c #181818",
"                         ",
"                         ",
"                         ",
"                         ",
"                         ",
"                         ",
"                         ",
"                         ",
"                         ",
"                         ",
"                         ",
"                         ",
"                         ",
"                         ",
"                         ",
"                         ",
"                         ",
"                         ",
"                         ",
"                         ",
".+@                      ",
".#+@                     ",
"+$#+@                    ",
"+$$#+@                   ",
"+$$##+@                  ",
"+$$###+@                 ",
"+$$$###+@                ",
"+$$.$###.@               ",
"+$$$.$###.@              ",
"+$$$..$###.@             ",
"+$$$.+.$#@#$@            ",
"+$$.+++.$#@#$@           ",
"+$$$.++$###@#$@          ",
"+$$$#@+.##@@@#$@         ",
" +$$$%&+%@@%%@#$@        ",
" +$$##%&$%%&&%@#$@       ",
"  +$###%&#%&&&%@##@      ",
"  +$#@@&&&&&&&&%@##@     "};
